<?xml version="1.0" encoding="UTF-8" standalone="no"?>
<svg
   xmlns:dc="http://purl.org/dc/elements/1.1/"
   xmlns:cc="http://creativecommons.org/ns#"
   xmlns:rdf="http://www.w3.org/1999/02/22-rdf-syntax-ns#"
   xmlns:svg="http://www.w3.org/2000/svg"
   xmlns="http://www.w3.org/2000/svg"
   id="svg8"
   version="1.1"
   viewBox="0 0 67.733332 67.733336"
   height="256"
   width="256">
  <defs
     id="defs2" />
  <metadata
     id="metadata5">
    <rdf:RDF>
      <cc:Work
         rdf:about="">
        <dc:format>image/svg+xml</dc:format>
        <dc:type
           rdf:resource="http://purl.org/dc/dcmitype/StillImage" />
        <dc:title></dc:title>
      </cc:Work>
    </rdf:RDF>
  </metadata>
  <g
     id="g2135"
     style="display:inline">
    <path
       id="path2127"
       style="fill:#ffffff;stroke-width:5.54109;stroke-linecap:round;stroke-linejoin:round;paint-order:stroke markers fill"
       d="m 104.51367,0 a 104.83116,104.83117 0 0 0 -73.808592,30.705078 104.83116,104.83117 0 0 0 0,148.253902 L 107.74609,256 256,107.74609 178.95898,30.705078 A 104.83116,104.83117 0 0 0 104.51367,0 Z m 27.39844,57.390625 c 8.02592,0 14.42713,2.00657 19.20117,6.019531 4.77404,4.012961 7.16016,9.374608 7.16016,16.085938 0,3.182692 -0.6056,6.210686 -1.81641,9.082031 -1.17621,2.836747 -3.33823,6.191824 -6.48633,10.066406 -0.86486,1.003241 -3.61434,3.908169 -8.25,8.716799 -4.63566,4.77404 -11.17418,11.468 -19.61523,20.08203 h 36.58398 v 8.82226 h -49.19336 v -8.82226 c 3.97837,-4.11675 9.39248,-9.63383 16.24219,-16.55274 6.8843,-6.95349 11.20834,-11.432968 12.97266,-13.439448 3.35566,-3.770799 5.69127,-6.954243 7.00586,-9.548828 1.34918,-2.629183 2.02343,-5.207025 2.02343,-7.732422 0,-4.116745 -1.45343,-7.471821 -4.35937,-10.066406 -2.87134,-2.594588 -6.62411,-3.892578 -11.25977,-3.892578 -3.28647,-10e-7 -6.76462,0.571271 -10.43164,1.71289 -3.63242,1.141619 -7.52444,2.871623 -11.67578,5.189453 V 62.527344 c 4.22053,-1.695131 8.16502,-2.974982 11.83203,-3.839844 3.66702,-0.864862 7.0221,-1.296875 10.06641,-1.296875 z m -78.978516,1.400391 h 10.482422 v 68.652344 h 37.724604 v 8.82226 H 52.933594 Z"
       transform="scale(0.26458334)" />
  </g>
</svg>
