<?xml version="1.0" encoding="UTF-8" standalone="no"?>
<svg
   xmlns:dc="http://purl.org/dc/elements/1.1/"
   xmlns:cc="http://creativecommons.org/ns#"
   xmlns:rdf="http://www.w3.org/1999/02/22-rdf-syntax-ns#"
   xmlns:svg="http://www.w3.org/2000/svg"
   xmlns="http://www.w3.org/2000/svg"
   id="svg8"
   version="1.1"
   viewBox="0 0 67.733332 67.733336"
   height="256"
   width="256">
  <defs
     id="defs2" />
  <metadata
     id="metadata5">
    <rdf:RDF>
      <cc:Work
         rdf:about="">
        <dc:format>image/svg+xml</dc:format>
        <dc:type
           rdf:resource="http://purl.org/dc/dcmitype/StillImage" />
        <dc:title></dc:title>
      </cc:Work>
    </rdf:RDF>
  </metadata>
  <g
     style="display:inline"
     id="layer1">
    <path
       id="path1554"
       style="fill:#ffffff;stroke-width:11.0688;stroke-linecap:round;stroke-linejoin:round;paint-order:stroke markers fill"
       d="M 0,0 -158.50977,385.86328 256,256 C 256,114.61511 141.38489,0 0,0 Z m 127.02734,118.39453 c 7.95674,0 14.25301,1.8168 18.88868,5.44922 4.63566,3.59783 6.95312,8.47499 6.95312,14.63281 0,4.28972 -1.22934,7.92331 -3.68555,10.89844 -2.4562,2.94053 -5.94857,4.98143 -10.48047,6.12305 5.01622,1.07243 8.92441,3.30309 11.72657,6.69336 2.83674,3.39026 4.25586,7.57698 4.25586,12.55859 0,7.64538 -2.63031,13.56016 -7.88867,17.74609 -5.25838,4.18594 -12.72957,6.2793 -22.41602,6.2793 -3.25188,0 -6.60891,-0.32903 -10.06836,-0.98633 -3.42485,-0.6227 -6.9697,-1.57352 -10.63672,-2.85351 v -10.11914 c 2.90594,1.69512 6.08743,2.97498 9.54688,3.83984 3.45945,0.86486 7.0749,1.29689 10.8457,1.29687 6.57295,10e-6 11.57319,-1.29799 14.99805,-3.89257 3.45945,-2.59459 5.1875,-6.36354 5.1875,-11.31055 0,-4.56647 -1.60693,-8.13141 -4.82422,-10.69141 -3.18269,-2.59458 -7.6298,-3.89062 -13.33789,-3.89062 h -9.02735 v -8.61524 h 9.44336 c 5.15458,0 9.09907,-1.01947 11.83203,-3.06054 2.73297,-2.07567 4.09961,-5.0512 4.09961,-8.92578 0,-3.97837 -1.41911,-7.02255 -4.25586,-9.13282 -2.80215,-2.14486 -6.83343,-3.21679 -12.09179,-3.21679 -2.87135,0 -5.94986,0.31089 -9.23633,0.93359 -3.28648,0.6227 -6.90193,1.59166 -10.8457,2.90625 v -9.3418 c 3.97836,-1.10702 7.69875,-1.93672 11.1582,-2.49023 3.49404,-0.55351 6.78046,-0.83008 9.85937,-0.83008 z m -80.224606,1.40039 h 10.482422 v 68.6543 h 37.72461 v 8.82031 H 46.802734 Z"
       transform="scale(0.26458334)" />
  </g>
</svg>
