<?xml version="1.0" encoding="UTF-8" standalone="no"?>
<svg
   xmlns:dc="http://purl.org/dc/elements/1.1/"
   xmlns:cc="http://creativecommons.org/ns#"
   xmlns:rdf="http://www.w3.org/1999/02/22-rdf-syntax-ns#"
   xmlns:svg="http://www.w3.org/2000/svg"
   xmlns="http://www.w3.org/2000/svg"
   id="svg8"
   version="1.1"
   viewBox="0 0 67.733332 67.733336"
   height="256"
   width="256">
  <defs
     id="defs2" />
  <metadata
     id="metadata5">
    <rdf:RDF>
      <cc:Work
         rdf:about="">
        <dc:format>image/svg+xml</dc:format>
        <dc:type
           rdf:resource="http://purl.org/dc/dcmitype/StillImage" />
        <dc:title></dc:title>
      </cc:Work>
    </rdf:RDF>
  </metadata>
  <g
     id="g2125"
     style="display:inline">
    <path
       id="path2117"
       style="fill:#ffffff;stroke-width:5.54109;stroke-linecap:round;stroke-linejoin:round;paint-order:stroke markers fill"
       d="M 107.74609,0 30.705078,77.041016 a 104.83116,104.83117 0 0 0 0,148.253904 104.83116,104.83117 0 0 0 148.253902,0 L 256,148.25391 Z M 46.933594,111.22656 h 23.662109 c 8.856189,0 15.463362,1.85113 19.822266,5.55274 4.358906,3.70161 6.539062,9.28735 6.539062,16.75976 0,4.87783 -1.140593,8.92529 -3.423828,12.14258 -2.248642,3.21729 -5.535064,5.44991 -9.859375,6.69531 2.248643,0.76108 4.426845,2.38615 6.53711,4.87696 2.144856,2.4908 4.290687,5.91648 6.435546,10.27539 L 107.2832,188.70117 H 96.023438 l -9.91211,-19.875 C 83.551336,163.637 81.060286,160.19513 78.638672,158.5 c -2.387019,-1.69513 -5.655301,-2.54297 -9.806641,-2.54297 H 57.416016 v 32.74414 H 46.933594 Z m 93.613286,0 h 10.48242 v 68.65235 h 17.12304 v 8.82226 h -44.62695 v -8.82226 h 17.125 v -59.10547 l -18.62891,3.73633 v -9.54688 z m -83.130864,8.61328 v 27.50196 h 13.179687 c 5.050794,0 8.856023,-1.15874 11.416016,-3.47657 2.594587,-2.35242 3.892578,-5.79429 3.892578,-10.32617 0,-4.53188 -1.297991,-7.93942 -3.892578,-10.22265 -2.559993,-2.31783 -6.365222,-3.47657 -11.416016,-3.47657 z"
       transform="scale(0.26458334)" />
  </g>
</svg>
