<?xml version="1.0" encoding="UTF-8" standalone="no"?>
<svg
   xmlns:dc="http://purl.org/dc/elements/1.1/"
   xmlns:cc="http://creativecommons.org/ns#"
   xmlns:rdf="http://www.w3.org/1999/02/22-rdf-syntax-ns#"
   xmlns:svg="http://www.w3.org/2000/svg"
   xmlns="http://www.w3.org/2000/svg"
   id="svg8"
   version="1.1"
   viewBox="0 0 67.733332 67.733336"
   height="256"
   width="256">
  <defs
     id="defs2" />
  <metadata
     id="metadata5">
    <rdf:RDF>
      <cc:Work
         rdf:about="">
        <dc:format>image/svg+xml</dc:format>
        <dc:type
           rdf:resource="http://purl.org/dc/dcmitype/StillImage" />
        <dc:title></dc:title>
      </cc:Work>
    </rdf:RDF>
  </metadata>
  <g
     id="g2145"
     style="display:inline"
     transform="matrix(-1,0,0,1,67.733334,0)">
    <path
       id="path2137"
       style="fill:#ffffff;stroke-width:5.54109;stroke-linecap:round;stroke-linejoin:round;paint-order:stroke markers fill"
       d="M 77.041016,30.705078 0,107.74609 148.25391,256 225.29492,178.95898 a 104.83116,104.83117 0 0 0 0,-148.253902 104.83116,104.83117 0 0 0 -148.253904,0 z M 184.92383,57.390625 c 8.02592,0 14.42518,2.00657 19.19922,6.019531 4.77403,4.012961 7.16211,9.374608 7.16211,16.085938 0,3.182692 -0.6056,6.210686 -1.81641,9.082031 -1.17621,2.836747 -3.33823,6.191824 -6.48633,10.066406 -0.86486,1.003241 -3.61629,3.908169 -8.25195,8.716799 -4.63566,4.77404 -11.17223,11.468 -19.61328,20.08203 h 36.58203 v 8.82226 h -49.19336 v -8.82226 c 3.97837,-4.11675 9.39248,-9.63383 16.24219,-16.55274 6.8843,-6.95349 11.20833,-11.432968 12.97265,-13.439448 3.35567,-3.770799 5.69127,-6.954243 7.00586,-9.548828 1.34919,-2.629183 2.02344,-5.207025 2.02344,-7.732422 0,-4.116745 -1.45148,-7.471821 -4.35742,-10.066406 -2.87134,-2.594588 -6.62606,-3.892578 -11.26172,-3.892578 -3.28648,-10e-7 -6.76267,0.571271 -10.42969,1.71289 -3.63242,1.141619 -7.52444,2.871623 -11.67578,5.189453 V 62.527344 c 4.22053,-1.695131 8.16502,-2.974982 11.83203,-3.839844 3.66702,-0.864862 7.02209,-1.296875 10.06641,-1.296875 z m -93.613283,1.400391 h 23.664063 c 8.85619,0 15.46335,1.851125 19.82227,5.552734 4.3589,3.701611 6.5371,9.289311 6.5371,16.761719 0,4.877823 -1.14059,8.92529 -3.42382,12.142578 -2.24865,3.217287 -5.53507,5.447957 -9.85938,6.693359 2.24864,0.761074 4.42685,2.386144 6.53711,4.876954 2.14486,2.4908 4.29069,5.91648 6.43555,10.27539 l 10.63867,21.17187 h -11.26172 l -9.91016,-19.875 c -2.55999,-5.18917 -5.05104,-8.63104 -7.47265,-10.32617 -2.38702,-1.69513 -5.65726,-2.54297 -9.8086,-2.54297 h -11.41601 v 32.74414 H 91.310547 Z m 10.482423,8.615234 v 27.501953 h 13.18164 c 5.05079,0 8.85602,-1.158732 11.41601,-3.476562 2.5946,-2.352424 3.89063,-5.794292 3.89063,-10.326172 0,-4.531878 -1.29603,-7.93942 -3.89063,-10.222657 -2.55999,-2.31783 -6.36522,-3.476562 -11.41601,-3.476562 z"
       transform="matrix(-0.26458334,0,0,0.26458334,67.733334,0)" />
  </g>
</svg>
