<?xml version="1.0" encoding="UTF-8" standalone="no"?>
<svg
   xmlns:dc="http://purl.org/dc/elements/1.1/"
   xmlns:cc="http://creativecommons.org/ns#"
   xmlns:rdf="http://www.w3.org/1999/02/22-rdf-syntax-ns#"
   xmlns:svg="http://www.w3.org/2000/svg"
   xmlns="http://www.w3.org/2000/svg"
   id="svg8"
   version="1.1"
   viewBox="0 0 67.733332 67.733336"
   height="256"
   width="256">
  <defs
     id="defs2" />
  <metadata
     id="metadata5">
    <rdf:RDF>
      <cc:Work
         rdf:about="">
        <dc:format>image/svg+xml</dc:format>
        <dc:type
           rdf:resource="http://purl.org/dc/dcmitype/StillImage" />
        <dc:title></dc:title>
      </cc:Work>
    </rdf:RDF>
  </metadata>
  <g
     style="display:inline"
     id="layer1">
    <path
       id="path1554"
       style="fill:#ffffff;stroke-width:11.0688;stroke-linecap:round;stroke-linejoin:round;paint-order:stroke markers fill"
       d="M 256,0 C 114.61511,0 0,114.61511 0,256 l 414.50977,129.86328 z m -65.89648,118.39453 c 7.95673,0 14.25301,1.8168 18.88867,5.44922 4.63566,3.59783 6.95508,8.47499 6.95508,14.63281 0,4.28972 -1.22934,7.92331 -3.68555,10.89844 -2.45621,2.94053 -5.95055,4.98143 -10.48242,6.12305 5.0162,1.07243 8.92636,3.30309 11.72851,6.69336 2.83675,3.39026 4.25391,7.57698 4.25391,12.55859 0,7.64538 -2.62836,13.56016 -7.88672,17.74609 -5.25836,4.18594 -12.73151,6.2793 -22.41797,6.2793 -3.25188,0 -6.60695,-0.32903 -10.06641,-0.98633 -3.42484,-0.6227 -6.9697,-1.57352 -10.63671,-2.85351 v -10.11914 c 2.90592,1.69512 6.08742,2.97498 9.54687,3.83984 3.45945,0.86486 7.07492,1.29689 10.8457,1.29687 6.57297,2e-5 11.57124,-1.29799 14.9961,-3.89257 3.45945,-2.59459 5.18945,-6.36354 5.18945,-11.31055 0,-4.56647 -1.60888,-8.13141 -4.82617,-10.69141 -3.18269,-2.59458 -7.62785,-3.89062 -13.33594,-3.89062 h -9.0293 v -8.61524 h 9.44532 c 5.15458,0 9.09711,-1.01947 11.83008,-3.06054 2.73296,-2.07567 4.0996,-5.0512 4.0996,-8.92578 2e-5,-3.97838 -1.41715,-7.02255 -4.2539,-9.13282 -2.80215,-2.14485 -6.83343,-3.21679 -12.0918,-3.21679 -2.87134,0 -5.94985,0.31089 -9.23633,0.93359 -3.28647,0.6227 -6.90193,1.59166 -10.8457,2.90625 v -9.3418 c 3.97837,-1.10702 7.6968,-1.93672 11.15625,-2.49023 3.49404,-0.55349 6.78046,-0.83008 9.85938,-0.83008 z m -94.857426,1.40039 H 118.9082 c 8.85619,0 15.46336,1.85113 19.82227,5.55274 4.35891,3.70161 6.53906,9.28931 6.53906,16.76172 0,4.87782 -1.14059,8.92529 -3.42383,12.14257 -2.24864,3.21729 -5.53506,5.44796 -9.85937,6.69336 2.24864,0.76108 4.42684,2.3881 6.53711,4.87891 2.14485,2.4908 4.29069,5.91453 6.43554,10.27344 l 10.63672,21.17187 h -11.25976 l -9.91211,-19.87305 c -2.55999,-5.18916 -5.05104,-8.63299 -7.47266,-10.32812 -2.38702,-1.69513 -5.6553,-2.54102 -9.80664,-2.54102 h -11.41601 v 32.74219 H 95.246094 Z m 10.482426,8.61524 v 27.50195 h 13.17968 c 5.0508,0 8.85603,-1.15873 11.41602,-3.47656 2.59459,-2.35243 3.89258,-5.79429 3.89258,-10.32617 0,-4.53189 -1.29799,-7.93942 -3.89258,-10.22266 -2.55999,-2.31783 -6.36522,-3.47656 -11.41602,-3.47656 z"
       transform="scale(0.26458333)" />
  </g>
</svg>
