<?xml version="1.0" encoding="UTF-8" standalone="no"?>
<svg
   id="svg8"
   version="1.1"
   viewBox="0 0 135.46666 135.46667"
   height="512"
   width="512"
   xmlns="http://www.w3.org/2000/svg"
   xmlns:svg="http://www.w3.org/2000/svg"
   xmlns:rdf="http://www.w3.org/1999/02/22-rdf-syntax-ns#"
   xmlns:cc="http://creativecommons.org/ns#"
   xmlns:dc="http://purl.org/dc/elements/1.1/">
  <defs
     id="defs2" />
  <metadata
     id="metadata5">
    <rdf:RDF>
      <cc:Work
         rdf:about="">
        <dc:format>image/svg+xml</dc:format>
        <dc:type
           rdf:resource="http://purl.org/dc/dcmitype/StillImage" />
      </cc:Work>
    </rdf:RDF>
  </metadata>
  <g
     id="g1">
    <path
       id="circle"
       style="display:inline;fill:#ffffff;stroke-width:9.17432"
       d="M 135.46666,67.73333 A 67.73333,67.73333 0 0 1 67.73333,135.46666 67.73333,67.73333 0 0 1 0,67.73333 67.73333,67.73333 0 0 1 67.73333,0 67.73333,67.73333 0 0 1 135.46666,67.73333 Z" />
    <path
       id="box"
       style="display:inline;fill:none;stroke:#000000;stroke-width:11.8776"
       d="M 31.338804,31.338797 H 104.12786 V 104.12786 H 31.338804 Z" />
    <path
       id="moon"
       style="display:inline;fill:none;stroke:#000000;stroke-width:12.7"
       d="M 114.31552,67.73333 A 46.582188,46.582188 0 0 1 67.73333,114.31552 46.582188,46.582188 0 0 1 21.151142,67.73333 46.582188,46.582188 0 0 1 67.73333,21.151142 46.582188,46.582188 0 0 1 114.31552,67.73333 Z" />
    <path
       id="pyramid"
       style="display:inline;fill:none;stroke:#000000;stroke-width:12.7"
       transform="translate(0,-161.53332)"
       d="M 107.10038,251.99522 H 28.36628 L 67.73333,183.80949 Z" />
    <path
       id="cross"
       style="display:inline;fill:none;stroke:#000000;stroke-width:12.7;stroke-linecap:butt;stroke-linejoin:miter;stroke-miterlimit:4;stroke-dasharray:none;stroke-opacity:1"
       d="M 106.64778,106.64779 28.818886,28.81889 m 3e-6,77.8289 77.828891,-77.8289" />
  </g>
</svg>
