<?xml version="1.0" encoding="UTF-8" standalone="no"?>
<svg
   id="svg8"
   version="1.1"
   viewBox="0 0 135.46666 135.46667"
   height="512"
   width="512"
   xmlns="http://www.w3.org/2000/svg"
   xmlns:svg="http://www.w3.org/2000/svg"
   xmlns:rdf="http://www.w3.org/1999/02/22-rdf-syntax-ns#"
   xmlns:cc="http://creativecommons.org/ns#"
   xmlns:dc="http://purl.org/dc/elements/1.1/">
  <defs
     id="defs2" />
  <metadata
     id="metadata5">
    <rdf:RDF>
      <cc:Work
         rdf:about="">
        <dc:format>image/svg+xml</dc:format>
        <dc:type
           rdf:resource="http://purl.org/dc/dcmitype/StillImage" />
      </cc:Work>
    </rdf:RDF>
  </metadata>
  <g
     id="g1">
    <path
       id="circle"
       style="display:inline;fill:#ffffff;stroke-width:9.17432"
       d="M 135.46666,67.73333 A 67.73333,67.73333 0 0 1 67.73333,135.46666 67.73333,67.73333 0 0 1 0,67.73333 67.73333,67.73333 0 0 1 67.73333,0 67.73333,67.73333 0 0 1 135.46666,67.73333 Z" />
    <path
       style="font-weight:600;font-size:91.7222px;line-height:1.25;font-family:'Droid Sans';-inkscape-font-specification:'Droid Sans Semi-Bold';letter-spacing:0px;word-spacing:0px;stroke-width:0.264583"
       d="M 83.520479,100.60642 79.041856,85.020814 H 56.469596 L 51.946187,100.60642 H 37.928097 L 59.201556,34.860237 H 76.175537 L 97.538569,100.60642 Z M 75.817247,73.376395 71.607342,59.044801 q -0.268718,-0.806152 -0.806153,-2.642387 -0.537434,-1.836236 -1.164442,-4.030761 -0.582221,-2.239311 -1.119655,-4.478623 -0.537435,-2.239311 -0.761366,-3.806829 -0.179145,0.985297 -0.492649,2.328883 -0.268717,1.343587 -0.671793,2.866319 -0.35829,1.477946 -0.761366,3.000678 -0.403076,1.522731 -0.761366,2.866318 -0.35829,1.343587 -0.671793,2.37367 -0.268718,1.030084 -0.403077,1.522732 l -4.165119,14.331594 z"
       id="cross"
       aria-label="A" />
    <path
       style="font-weight:600;font-size:91.7222px;line-height:1.25;font-family:'Droid Sans';-inkscape-font-specification:'Droid Sans Semi-Bold';letter-spacing:0px;word-spacing:0px;display:inline;stroke-width:0.264583"
       d="M 96.486091,100.47207 H 80.631765 L 67.240683,75.705284 53.8496,100.47207 H 38.980572 L 58.865658,66.703252 40.368945,34.994601 h 15.31689 L 67.957262,58.552158 79.959972,34.994601 H 94.918573 L 76.197929,67.464617 Z"
       id="box"
       aria-label="X" />
    <path
       style="font-weight:600;font-size:91.7222px;line-height:1.25;font-family:'Droid Sans';-inkscape-font-specification:'Droid Sans Semi-Bold';letter-spacing:0px;word-spacing:0px;display:inline;stroke-width:0.264583"
       d="m 46.168763,35.128955 h 19.168506 q 6.1805,0 10.838268,0.895724 4.657768,0.850939 7.792804,2.821533 3.135036,1.925808 4.702554,5.10563 1.612304,3.135036 1.612304,7.748018 0,2.776746 -0.671793,5.195202 -0.671794,2.418457 -1.970594,4.254692 -1.298801,1.836235 -3.179823,3.09025 -1.836235,1.209228 -4.254691,1.612304 v 0.447862 q 2.463242,0.537435 4.568195,1.567518 2.149739,0.985298 3.717257,2.776747 1.612304,1.746663 2.508029,4.433836 0.940511,2.687174 0.940511,6.53879 0,4.478623 -1.567518,8.016735 -1.567518,3.493326 -4.523409,5.956569 -2.911105,2.418456 -7.121011,3.717257 -4.165119,1.298798 -9.449894,1.298798 H 46.168763 Z m 13.883731,25.931227 h 7.210583 q 2.597602,0 4.344265,-0.447863 1.746662,-0.492648 2.821532,-1.433159 1.07487,-0.940511 1.522732,-2.328884 0.492648,-1.433159 0.492648,-3.314181 0,-3.762043 -2.37367,-5.374348 -2.328884,-1.65709 -7.434514,-1.65709 h -6.583576 z m 0,11.017412 v 17.063554 h 8.151094 q 2.73196,0 4.568196,-0.627008 1.881021,-0.627007 3.000677,-1.791449 1.164442,-1.164442 1.65709,-2.821532 0.492649,-1.657091 0.492649,-3.672471 0,-1.836236 -0.492649,-3.314181 -0.492648,-1.522732 -1.701876,-2.597601 -1.164442,-1.07487 -3.09025,-1.657091 -1.925808,-0.582221 -4.792127,-0.582221 z"
       id="moon"
       aria-label="B" />
    <path
       style="font-weight:600;font-size:91.7222px;line-height:1.25;font-family:'Droid Sans';-inkscape-font-specification:'Droid Sans Semi-Bold';letter-spacing:0px;word-spacing:0px;display:inline;stroke-width:0.264583"
       d="M 67.733333,61.955911 79.556898,34.994601 H 94.515499 L 74.630413,74.988704 V 100.47207 H 60.836254 V 75.436566 L 40.951168,34.994601 h 15.048173 z"
       id="pyramid"
       aria-label="Y" />
  </g>
</svg>
