<?xml version="1.0" encoding="UTF-8"?>
<svg width="256" height="256" fill="none" version="1.1" viewBox="0 0 256 256" xmlns="http://www.w3.org/2000/svg" xmlns:xlink="http://www.w3.org/1999/xlink">
 <path d="m210.21 128c0-45.316-36.735-82.051-82.051-82.051v-45.949c70.693 0 128 57.307 128 128s-57.307 128-128 128v-45.949c45.316 0 82.051-36.735 82.051-82.051z" clip-rule="evenodd" fill="url(#linearGradient13041)" fill-rule="evenodd"/>
 <defs>
  <linearGradient id="linearGradient13041" x1="128.15" x2="244.72" y1="128" y2="178.23" gradientUnits="userSpaceOnUse">
   <stop stop-color="#ac63ea" offset="0"/>
   <stop stop-color="#1a9fff" offset="1"/>
  </linearGradient>
 </defs>
 <g transform="matrix(.62128 0 0 .62128 43.535 27.601)">
  <g transform="matrix(.88086 0 0 .88086 16.14 19.245)" display="none">
   <path transform="matrix(.30037 0 0 .30037 -18.323 7.7441)" d="m64.518 61c-1.9487 0-3.5176 1.5689-3.5176 3.5176v309.06h261.16l19.324-40.734 33.477-70.566 33.479 70.566 19.322 40.734h168.47l19.322-40.734 33.479-70.566 33.477 70.566 19.324 40.734h261.16v-309.06c0-1.9487-1.5689-3.5176-3.5176-3.5176zm-3.5176 589.42v309.06c0 1.9487 1.5689 3.5176 3.5176 3.5176h894.96c1.9487 0 3.5176-1.5689 3.5176-3.5176v-309.06h-387.44l-63.557 96.242-63.557-96.242z" fill="#cfff0d"/>
   <path d="m94.305 86.525-10.055 21.196-5.8043 12.235h-78.445v83.155h116.38l19.09 28.908 19.09-28.908h116.38v-83.155h-78.445l-5.8043-12.235-10.055-21.196-15.86 33.431h-50.604l-5.8043-12.235z" display="inline" fill="#162d50"/>
   <path d="m100.81 150.69v31.75h15.875v-31.75zm53.446 0v31.75h15.875v-31.75z" display="inline" fill="#fae"/>
   <path transform="matrix(.30037 0 0 .30037 -18.323 7.7441)" d="m374.96 146.53c-50.815 0-97.416 18.328-133.56 48.709l18.008 21.459c31.218-26.207 71.507-41.98 115.56-41.98 44.051 0 84.338 15.775 115.56 41.982l18.008-21.461c-36.149-30.381-82.749-48.709-133.56-48.709zm0 56.486c-36.989 0-70.927 13.357-97.258 35.49l18.008 21.461c21.4-17.96 49.025-28.764 79.25-28.764s57.85 10.803 79.252 28.764l18.006-21.461c-26.332-22.133-60.269-35.49-97.258-35.49z" color="#000000" color-rendering="auto" display="inline" dominant-baseline="auto" fill="#162d50" image-rendering="auto" shape-rendering="auto" solid-color="#000000" style="font-feature-settings:normal;font-variant-alternates:normal;font-variant-caps:normal;font-variant-ligatures:normal;font-variant-numeric:normal;font-variant-position:normal;isolation:auto;mix-blend-mode:normal;shape-padding:0;text-decoration-color:#000000;text-decoration-line:none;text-decoration-style:solid;text-indent:0;text-orientation:mixed;text-transform:none;white-space:normal"/>
  </g>
  <circle cx="135.47" cy="161.53" r="119.33" display="none" fill="#cfff0d"/>
  <g transform="matrix(.88086 0 0 .88086 16.14 19.245)">
   <path transform="matrix(.30037 0 0 .30037 -18.323 7.7441)" d="m512 61a451 451 0 0 0-428.98 312.58h239.14l19.324-40.734 33.477-70.566 33.479 70.566 19.322 40.734h168.47l19.322-40.734 33.479-70.566 33.477 70.566 19.324 40.734h238.82a451 451 0 0 0-428.66-312.58zm-428.66 589.42a451 451 0 0 0 428.66 312.58 451 451 0 0 0 428.98-312.58h-365.42l-63.557 96.242-63.557-96.242z" fill="#cfff0d"/>
   <path transform="matrix(.30037 0 0 .30037 -18.323 7.7441)" d="m374.96 262.28-52.801 111.3h-239.14a451 451 0 0 0-22.02 138.42 451 451 0 0 0 22.342 138.42h365.1l63.557 96.242 63.557-96.242h365.42a451 451 0 0 0 22.02-138.42 451 451 0 0 0-22.342-138.42h-238.82l-52.801-111.3-33.479 70.566-19.322 40.734h-168.47l-19.322-40.734z" fill="#162d50"/>
   <path d="m100.81 150.69v31.75h15.875v-31.75zm53.446 0v31.75h15.875v-31.75z" fill="#fae"/>
   <path transform="matrix(.30037 0 0 .30037 -18.323 7.7441)" d="m374.96 146.53c-50.815 0-97.416 18.328-133.56 48.709l18.008 21.459c31.218-26.207 71.507-41.98 115.56-41.98 44.051 0 84.338 15.775 115.56 41.982l18.008-21.461c-36.149-30.381-82.749-48.709-133.56-48.709zm0 56.486c-36.989 0-70.927 13.357-97.258 35.49l18.008 21.461c21.4-17.96 49.025-28.764 79.25-28.764s57.85 10.803 79.252 28.764l18.006-21.461c-26.332-22.133-60.269-35.49-97.258-35.49z" color="#000000" color-rendering="auto" dominant-baseline="auto" fill="#162d50" image-rendering="auto" shape-rendering="auto" solid-color="#000000" style="font-feature-settings:normal;font-variant-alternates:normal;font-variant-caps:normal;font-variant-ligatures:normal;font-variant-numeric:normal;font-variant-position:normal;isolation:auto;mix-blend-mode:normal;shape-padding:0;text-decoration-color:#000000;text-decoration-line:none;text-decoration-style:solid;text-indent:0;text-orientation:mixed;text-transform:none;white-space:normal"/>
  </g>
 </g>
</svg>
