<?xml version="1.0" encoding="UTF-8" standalone="no"?>
<!-- Created with Inkscape (http://www.inkscape.org/) -->

<svg
   width="1024"
   height="1024"
   viewBox="0 0 270.93332 270.93334"
   version="1.1"
   id="svg5"
   xml:space="preserve"
   xmlns:xlink="http://www.w3.org/1999/xlink"
   xmlns="http://www.w3.org/2000/svg"
   xmlns:svg="http://www.w3.org/2000/svg"><defs
     id="defs2"><linearGradient
       id="linearGradient4465"><stop
         style="stop-color:#f6ffbc;stop-opacity:1;"
         offset="0"
         id="stop4461" /><stop
         style="stop-color:#b4d700;stop-opacity:1;"
         offset="1"
         id="stop4463" /></linearGradient><filter
       x="-0.014563107"
       y="-0.014563107"
       width="1.0291262"
       height="1.0412621"
       filterUnits="objectBoundingBox"
       id="filter-80aygx4sbj-3"><feOffset
         dx="0"
         dy="5"
         in="SourceAlpha"
         result="shadowOffsetOuter1"
         id="feOffset424" /><feGaussianBlur
         stdDeviation="2.5"
         in="shadowOffsetOuter1"
         result="shadowBlurOuter1"
         id="feGaussianBlur426" /><feColorMatrix
         values="0 0 0 0 0   0 0 0 0 0   0 0 0 0 0  0 0 0 0.3 0"
         type="matrix"
         in="shadowBlurOuter1"
         id="feColorMatrix428" /></filter><clipPath
       clipPathUnits="userSpaceOnUse"
       id="clipPath964"><circle
         style="display:inline;fill:#ff9955;fill-opacity:1;stroke:none;stroke-width:8.46667;stroke-miterlimit:4;stroke-dasharray:none;stroke-opacity:1"
         id="circle966"
         cx="-135.46669"
         cy="161.49431"
         r="135.46667"
         transform="scale(-1,1)" /></clipPath><linearGradient
       xlink:href="#linearGradient4465"
       id="linearGradient4467"
       x1="67.73333"
       y1="13.229165"
       x2="67.73333"
       y2="122.2375"
       gradientUnits="userSpaceOnUse" /><linearGradient
       xlink:href="#linearGradient4465-9"
       id="linearGradient4467-7"
       x1="67.73333"
       y1="13.229165"
       x2="67.73333"
       y2="122.2375"
       gradientUnits="userSpaceOnUse"
       gradientTransform="translate(-7.288516e-4,6.5027792e-5)" /><linearGradient
       id="linearGradient4465-9"><stop
         style="stop-color:#f1ff7f;stop-opacity:1;"
         offset="0"
         id="stop4461-3" /><stop
         style="stop-color:#b2d400;stop-opacity:1;"
         offset="1"
         id="stop4463-8" /></linearGradient></defs><g
     id="layer1"
     transform="matrix(2.0000001,0,0,2.0000001,4.2905177e-6,-3.0059484e-5)"><path
       d="m 417,128.31353 c 0,-4.89098 0,-9.78246 -0.0281,-14.67394 -0.0245,-4.12049 -0.072,-8.23997 -0.184,-12.35846 -0.242,-8.976466 -0.77149,-18.029933 -2.36798,-26.906401 C 412.80098,65.370262 410.157,56.989792 405.99053,48.808322 401.89456,40.766852 396.5441,33.408378 390.16015,27.028902 383.7777,20.649425 376.41725,15.302444 368.37281,11.208959 360.18287,7.0414744 351.79343,4.398484 342.779,2.7799899 333.90156,1.1859957 324.84563,0.65749761 315.8692,0.41499849 311.74773,0.3034989 307.62626,0.25649907 303.50379,0.23099916 298.60983,0.20099927 293.71586,0.20349926 288.8219,0.20349926 L 231.99832,0 h -42.49969 l -55.81808,0.20349926 c -4.90347,0 -9.80693,-0.0025 -14.71039,0.0274999 -4.13097,0.0254999 -8.25994,0.0724997 -12.38941,0.18399933 C 97.583315,0.65749761 88.506882,1.1864957 79.608448,2.7824899 70.582015,4.400484 62.180077,7.0424744 53.979137,11.206959 45.917697,15.300944 38.541252,20.648425 32.145299,27.028902 25.750346,33.407878 20.389886,40.764852 16.286417,48.804822 12.108447,56.990293 9.459467,65.375762 7.836479,74.385229 6.2384908,83.258197 5.7089948,92.308664 5.4654965,101.28113 5.3544974,105.40012 5.3064977,109.5196 5.2814979,113.63959 5.2514981,118.53157 5,124.60805 5,129.49953 v 55.0448 42.95484 l 0.2539981,56.2143 c 0,4.89798 -0.002,9.79596 0.0275,14.69394 0.025,4.12599 0.072999,8.25097 0.1844986,12.37546 0.2429983,8.98797 0.7734943,18.05443 2.3729825,26.9429 1.622488,9.01647 4.2709678,17.40894 8.4454378,25.60091 4.103969,8.05297 9.465429,15.42094 15.860882,21.80942 6.395453,6.38848 13.769898,11.74245 21.829839,15.84194 8.205939,4.17298 16.611876,6.81947 25.64381,8.43997 8.894434,1.59649 17.967867,2.12599 26.961802,2.36849 4.12947,0.1115 8.25894,0.159 12.38991,0.184 C 123.87412,412 128.77708,412 133.68055,412 h 56.32258 42.60518 56.21359 c 4.89396,0 9.78793,0 14.68189,-0.0295 4.12247,-0.025 8.24394,-0.0725 12.36541,-0.184 8.97993,-0.243 18.03887,-0.773 26.9203,-2.37049 9.00893,-1.62049 17.39437,-4.26598 25.57981,-8.43647 8.04594,-4.09898 15.40789,-9.45397 21.79084,-15.84344 6.38295,-6.38748 11.73291,-13.75445 15.82888,-21.80592 4.16897,-8.19597 6.81295,-16.59244 8.43294,-25.61491 1.59499,-8.88497 2.12398,-17.94793 2.36648,-26.9324 0.1115,-4.12499 0.159,-8.24997 0.1835,-12.37546 C 417,293.50943 417,288.61145 417,283.71347 c 0,0 0,-55.2218 0,-56.2143 v -42.99984 c 0,-0.733 0,-56.1858 0,-56.1858"
       id="use436"
       style="display:inline;fill:#000000;fill-opacity:1;fill-rule:evenodd;stroke:none;stroke-width:1;filter:url(#filter-80aygx4sbj-3)"
       transform="matrix(0.26458333,0,0,0.26458333,11.906247,13.229181)" /><path
       id="path1446-0"
       style="display:inline;fill:url(#linearGradient4467-7);fill-opacity:1;fill-rule:evenodd;stroke:none;stroke-width:0.264583"
       d="m 62.044061,13.229232 -14.7686,0.05374 c -1.29738,0 -2.59438,-7.27e-4 -3.89175,0.0072 -1.09299,0.0067 -2.18577,0.01959 -3.27836,0.04909 -2.38057,0.06416 -4.78214,0.204046 -7.13651,0.626319 -2.38824,0.428094 -4.61115,1.126951 -6.78098,2.228804 -2.13292,1.083199 -4.08465,2.498142 -5.77691,4.186308 -1.692,1.687769 -3.1099,3.634166 -4.19561,5.761406 -1.10542,2.165736 -1.80663,4.38431 -2.23604,6.768062 -0.4228,2.347638 -0.56293,4.7424 -0.62735,7.116361 -0.0294,1.089816 -0.042,2.179488 -0.0486,3.269568 -0.008,1.294336 -0.0744,2.902441 -0.0744,4.196643 v 6.872449 H 122.23676 v -7.186125 h 5.2e-4 c 0,-1.29407 -2.4e-4,-2.588764 -0.007,-3.882967 -0.007,-1.090212 -0.019,-2.179885 -0.0486,-3.269568 -0.064,-2.37502 -0.20392,-4.770381 -0.62632,-7.118945 -0.42834,-2.38243 -1.12798,-4.599766 -2.23036,-6.764445 -1.08372,-2.127637 -2.49928,-4.074538 -4.18837,-5.762439 -1.68869,-1.687901 -3.63608,-3.102724 -5.76451,-4.185791 -2.16692,-1.102646 -4.38662,-1.802128 -6.77168,-2.230355 -2.34883,-0.421743 -4.744969,-0.561124 -7.119979,-0.625285 -1.09047,-0.0295 -2.1809,-0.04235 -3.27163,-0.04909 -1.29486,-0.0079 -2.59018,-0.0072 -3.88504,-0.0072 l -15.03474,-0.05374 z m -48.74947,74.745825 0.002,0.319877 c 0,1.295923 -6e-4,2.592212 0.007,3.888135 0.007,1.091667 0.0196,2.182948 0.0491,3.274218 0.0643,2.378065 0.20415,4.777033 0.62735,7.128773 0.42928,2.3856 1.13051,4.60577 2.235,6.77323 1.08584,2.13067 2.504,4.08043 4.19613,5.7707 1.69213,1.69029 3.64335,3.10682 5.77587,4.19148 2.17116,1.1041 4.39542,1.80418 6.78512,2.23294 2.35332,0.42241 4.75377,0.56267 7.13341,0.62683 1.09259,0.0295 2.18537,0.042 3.27836,0.0486 1.29737,0.008 2.59437,0.008 3.89175,0.008 h 14.90244 11.27219 14.87351 c 1.29485,0 2.58965,2.5e-4 3.88451,-0.008 1.09074,-0.007 2.18117,-0.0191 3.27164,-0.0486 2.37594,-0.0643 4.772679,-0.20468 7.122559,-0.62735 2.38361,-0.42875 4.60233,-1.12847 6.76806,-2.2319 2.12882,-1.08452 4.07671,-2.50145 5.76554,-4.192 1.68882,-1.69001 3.10414,-3.63939 4.18786,-5.76967 1.10304,-2.16852 1.80277,-4.39017 2.23139,-6.77736 0.42201,-2.35081 0.56216,-4.748534 0.62632,-7.125673 0.0295,-1.091402 0.0417,-2.182683 0.0481,-3.274218 0.007,-1.295923 0.007,-2.592212 0.007,-3.888135 v -0.319877 z" /><path
       id="path4518"
       style="display:inline;fill:#162d50;stroke:none;stroke-width:0.106942px;stroke-linecap:butt;stroke-linejoin:miter;stroke-opacity:1"
       d="m 51.096105,40.852287 -4.064351,8.567436 -2.345593,4.945434 H 13.229682 v 7.69152 11.365198 l 0.06563,14.553117 H 60.017007 L 67.733332,99.65955 75.449657,87.974992 H 122.2375 V 73.421875 62.044791 54.365157 H 90.780505 l -2.345594,-4.945434 -4.064351,-8.567436 -4.064351,8.567436 -2.346111,4.945434 H 67.733332 57.506567 l -2.34611,-4.945434 z" /><rect
       y="66.785446"
       x="-81.742691"
       height="12.833001"
       width="6.4165006"
       id="rect1043"
       style="display:inline;fill:#ffaaee;fill-opacity:1;stroke:none;stroke-width:0.075952;stroke-miterlimit:4;stroke-dasharray:none"
       transform="scale(-1,1)" /><rect
       style="display:inline;fill:#ffaaee;fill-opacity:1;stroke:none;stroke-width:0.075952;stroke-miterlimit:4;stroke-dasharray:none"
       id="rect1047"
       width="6.4165006"
       height="12.833001"
       x="-60.140472"
       y="66.785446"
       transform="scale(-1,1)" /><path
       id="path830"
       style="color:#000000;fill:#162d50;-inkscape-stroke:none"
       d="m 51.095589,26.798881 c -6.169023,0 -11.826367,2.225125 -16.215031,5.913334 l 2.185913,2.605009 c 3.790164,-3.181711 8.681211,-5.09633 14.029118,-5.09633 5.348221,0 10.239895,1.9148 14.030152,5.096847 l 2.185913,-2.605009 C 62.922884,29.024147 57.264963,26.798881 51.095589,26.798881 Z" /><path
       id="circle840"
       style="color:#000000;fill:#162d50;-inkscape-stroke:none"
       d="m 51.095589,33.656344 c -4.49058,0 -8.610793,1.621713 -11.807548,4.308781 l 2.18643,2.605525 c 2.597877,-2.180752 5.951484,-3.492293 9.621118,-3.492293 3.669777,0 7.024322,1.311388 9.622669,3.492293 l 2.185913,-2.605009 C 59.707311,35.278198 55.58652,33.656344 51.095589,33.656344 Z" /></g></svg>
