<?xml version="1.0" encoding="UTF-8" standalone="no"?>
<!-- Created with Inkscape (http://www.inkscape.org/) -->

<svg
   width="1024"
   height="1024"
   viewBox="0 0 270.93332 270.93334"
   version="1.1"
   id="svg5"
   inkscape:version="1.2.1 (9c6d41e, 2022-07-14)"
   sodipodi:docname="chiaki_macos.svg"
   xml:space="preserve"
   xmlns:inkscape="http://www.inkscape.org/namespaces/inkscape"
   xmlns:sodipodi="http://sodipodi.sourceforge.net/DTD/sodipodi-0.dtd"
   xmlns:xlink="http://www.w3.org/1999/xlink"
   xmlns="http://www.w3.org/2000/svg"
   xmlns:svg="http://www.w3.org/2000/svg"><sodipodi:namedview
     id="namedview7"
     pagecolor="#505050"
     bordercolor="#eeeeee"
     borderopacity="1"
     inkscape:showpageshadow="0"
     inkscape:pageopacity="0"
     inkscape:pagecheckerboard="true"
     inkscape:deskcolor="#505050"
     inkscape:document-units="mm"
     showgrid="false"
     inkscape:zoom="0.5946522"
     inkscape:cx="616.32665"
     inkscape:cy="519.63148"
     inkscape:window-width="1920"
     inkscape:window-height="978"
     inkscape:window-x="0"
     inkscape:window-y="25"
     inkscape:window-maximized="1"
     inkscape:current-layer="layer1"
     showguides="true"><sodipodi:guide
       position="26.458333,219.96511"
       orientation="-1,0"
       id="guide1357"
       inkscape:locked="false"
       inkscape:label=""
       inkscape:color="rgb(0,134,229)" /><sodipodi:guide
       position="50.653599,244.475"
       orientation="0,1"
       id="guide1359"
       inkscape:locked="false"
       inkscape:label=""
       inkscape:color="rgb(0,134,229)" /><sodipodi:guide
       position="244.475,210.52655"
       orientation="-1,0"
       id="guide1361"
       inkscape:locked="false"
       inkscape:label=""
       inkscape:color="rgb(0,134,229)" /><sodipodi:guide
       position="67.733332,26.458333"
       orientation="0,1"
       id="guide1363"
       inkscape:locked="false"
       inkscape:label=""
       inkscape:color="rgb(0,134,229)" /><sodipodi:guide
       position="135.46666,253.78662"
       orientation="-1,0"
       id="guide4345"
       inkscape:locked="false"
       inkscape:label=""
       inkscape:color="rgb(0,134,229)" /></sodipodi:namedview><defs
     id="defs2"><linearGradient
       inkscape:collect="always"
       id="linearGradient4465"><stop
         style="stop-color:#f1ff7f;stop-opacity:1;"
         offset="0"
         id="stop4461" /><stop
         style="stop-color:#b2d400;stop-opacity:1;"
         offset="1"
         id="stop4463" /></linearGradient><filter
       x="-0.014563107"
       y="-0.014563107"
       width="1.0291262"
       height="1.0412621"
       filterUnits="objectBoundingBox"
       id="filter-80aygx4sbj-3"><feOffset
         dx="0"
         dy="5"
         in="SourceAlpha"
         result="shadowOffsetOuter1"
         id="feOffset424" /><feGaussianBlur
         stdDeviation="2.5"
         in="shadowOffsetOuter1"
         result="shadowBlurOuter1"
         id="feGaussianBlur426" /><feColorMatrix
         values="0 0 0 0 0   0 0 0 0 0   0 0 0 0 0  0 0 0 0.3 0"
         type="matrix"
         in="shadowBlurOuter1"
         id="feColorMatrix428" /></filter><clipPath
       clipPathUnits="userSpaceOnUse"
       id="clipPath869"><path
         d="m -143.73827,56.831818 a 79.375,79.375 0 0 1 102.042535,2e-6 l -51.021268,60.80478 z"
         sodipodi:end="5.4105207"
         sodipodi:start="4.0142573"
         sodipodi:ry="79.375"
         sodipodi:rx="79.375"
         sodipodi:cy="117.6366"
         sodipodi:cx="-92.717003"
         sodipodi:type="arc"
         id="path871"
         style="fill:#008080;fill-opacity:1;stroke:none;stroke-width:11.1206;stroke-miterlimit:4;stroke-dasharray:none;stroke-opacity:1"
         sodipodi:arc-type="slice" /></clipPath><clipPath
       clipPathUnits="userSpaceOnUse"
       id="clipPath964"><circle
         style="display:inline;fill:#ff9955;fill-opacity:1;stroke:none;stroke-width:8.46667;stroke-miterlimit:4;stroke-dasharray:none;stroke-opacity:1"
         id="circle966"
         cx="-135.46669"
         cy="161.49431"
         r="135.46667"
         inkscape:label="circle"
         transform="scale(-1,1)" /></clipPath><clipPath
       clipPathUnits="userSpaceOnUse"
       id="clipPath4387"><path
         d="m 270.31599,96.939968 c 0,-3.20165 0,-6.403627 -0.0173,-9.605605 -0.0174,-2.697285 -0.0473,-5.393909 -0.12049,-8.089885 -0.15834,-5.876017 -0.50503,-11.802446 -1.55009,-17.613009 -1.05975,-5.894353 -2.79053,-11.380228 -5.51791,-16.735846 -2.68122,-5.26397 -6.18365,-10.080848 -10.3626,-14.256872 -4.17798,-4.176024 -8.99614,-7.676173 -14.26207,-10.355782 -5.36116,-2.728048 -10.85292,-4.458156 -16.75377,-5.517628 -5.81122,-1.043433 -11.73926,-1.38939 -17.61526,-1.54813 -2.69792,-0.07299 -5.39585,-0.103764 -8.09443,-0.120439 -3.2036,-0.01955 -6.40721,-0.01806 -9.61081,-0.01806 L 149.2133,12.945506 h -27.8204 l -36.538684,0.133205 c -3.209827,0 -6.419646,-0.0016 -9.629466,0.01806 -2.704145,0.01657 -5.406981,0.04745 -8.110144,0.120439 -5.889745,0.158737 -11.831203,0.505024 -17.656149,1.549765 -5.908728,1.059145 -11.408663,2.788599 -16.777022,5.514685 -5.277041,2.679934 -10.105685,6.18041 -14.292493,10.35709 -4.186156,4.175697 -7.695131,8.991593 -10.3812753,14.254581 -2.734911,5.35823 -4.4689412,10.84739 -5.5313527,16.74501 -1.0460477,5.808273 -1.3926574,11.732737 -1.55205319,17.606136 -0.0726642,2.696304 -0.10408515,5.392927 -0.12043909,8.089885 -0.0195464,3.202305 -0.18427009,7.179987 -0.18427009,10.381964 v 36.032494 28.11836 l 0.16625869,36.79805 c 0,3.20624 -0.001309,6.41247 0.0180605,9.6187 0.0163323,2.70089 0.0477729,5.40111 0.12078473,8.10101 0.15905935,5.88356 0.50633015,11.81849 1.55336045,17.63691 1.0620848,5.90221 2.7957884,11.39593 5.5284083,16.75842 2.6864707,5.27149 6.1960987,10.09461 10.3825837,14.27651 4.186482,4.18193 9.013815,7.68665 14.289876,10.3702 5.37163,2.73164 10.874184,4.46402 16.786519,5.52481 5.82232,1.04508 11.761815,1.39168 17.649275,1.55042 2.703163,0.073 5.406326,0.10416 8.110465,0.12049 3.20982,0.0198 6.419318,0.0198 9.629138,0.0198 h 36.868929 27.88948 36.79758 c 3.2036,0 6.40721,0 9.61081,-0.0198 2.69858,-0.0174 5.39651,-0.0475 8.09444,-0.12049 5.87828,-0.15908 11.8083,-0.506 17.62211,-1.55173 5.89727,-1.06076 11.38641,-2.79253 16.74462,-5.52253 5.26689,-2.68321 10.08605,-6.18859 14.26436,-10.37117 4.17829,-4.18126 7.68039,-9.00371 10.36162,-14.27421 2.72902,-5.36511 4.45979,-10.86145 5.52024,-16.7676 1.04409,-5.81612 1.39036,-11.74877 1.5491,-17.63003 0.073,-2.70023 0.10416,-5.40045 0.11999,-8.10101 0.0173,-3.20623 0.0173,-6.41246 0.0173,-9.6187 0,0 0,-36.14835 0,-36.79805 v -28.14782 c 0,-0.47982 0,-36.779393 0,-36.779393"
         id="path4389"
         style="fill:#cfff0d;fill-opacity:1;fill-rule:evenodd;stroke:none;stroke-width:0.654602"
         inkscape:label="clip" /></clipPath><linearGradient
       inkscape:collect="always"
       xlink:href="#linearGradient4465"
       id="linearGradient4467"
       x1="67.73333"
       y1="13.229165"
       x2="67.73333"
       y2="122.2375"
       gradientUnits="userSpaceOnUse"
       gradientTransform="matrix(2.0000001,0,0,2.0000001,5.0529028e-6,-2.9497097e-5)" /><linearGradient
       inkscape:collect="always"
       xlink:href="#linearGradient4465"
       id="linearGradient1573"
       gradientUnits="userSpaceOnUse"
       x1="67.73333"
       y1="13.229165"
       x2="67.73333"
       y2="122.2375"
       gradientTransform="matrix(1.9999999,0,0,1.9999999,-8.9032287e-4,7.677083e-6)" /></defs><g
     inkscape:label="Ebene 1"
     inkscape:groupmode="layer"
     id="layer1"><path
       d="m 417,128.31353 c 0,-4.89098 0,-9.78246 -0.0281,-14.67394 -0.0245,-4.12049 -0.072,-8.23997 -0.184,-12.35846 -0.242,-8.976466 -0.77149,-18.029933 -2.36798,-26.906401 C 412.80098,65.370262 410.157,56.989792 405.99053,48.808322 401.89456,40.766852 396.5441,33.408378 390.16015,27.028902 383.7777,20.649425 376.41725,15.302444 368.37281,11.208959 360.18287,7.0414744 351.79343,4.398484 342.779,2.7799899 333.90156,1.1859957 324.84563,0.65749761 315.8692,0.41499849 311.74773,0.3034989 307.62626,0.25649907 303.50379,0.23099916 298.60983,0.20099927 293.71586,0.20349926 288.8219,0.20349926 L 231.99832,0 h -42.49969 l -55.81808,0.20349926 c -4.90347,0 -9.80693,-0.0025 -14.71039,0.0274999 -4.13097,0.0254999 -8.25994,0.0724997 -12.38941,0.18399933 C 97.583315,0.65749761 88.506882,1.1864957 79.608448,2.7824899 70.582015,4.400484 62.180077,7.0424744 53.979137,11.206959 45.917697,15.300944 38.541252,20.648425 32.145299,27.028902 25.750346,33.407878 20.389886,40.764852 16.286417,48.804822 12.108447,56.990293 9.459467,65.375762 7.836479,74.385229 6.2384908,83.258197 5.7089948,92.308664 5.4654965,101.28113 5.3544974,105.40012 5.3064977,109.5196 5.2814979,113.63959 5.2514981,118.53157 5,124.60805 5,129.49953 v 55.0448 42.95484 l 0.2539981,56.2143 c 0,4.89798 -0.002,9.79596 0.0275,14.69394 0.025,4.12599 0.072999,8.25097 0.1844986,12.37546 0.2429983,8.98797 0.7734943,18.05443 2.3729825,26.9429 1.622488,9.01647 4.2709678,17.40894 8.4454378,25.60091 4.103969,8.05297 9.465429,15.42094 15.860882,21.80942 6.395453,6.38848 13.769898,11.74245 21.829839,15.84194 8.205939,4.17298 16.611876,6.81947 25.64381,8.43997 8.894434,1.59649 17.967867,2.12599 26.961802,2.36849 4.12947,0.1115 8.25894,0.159 12.38991,0.184 C 123.87412,412 128.77708,412 133.68055,412 h 56.32258 42.60518 56.21359 c 4.89396,0 9.78793,0 14.68189,-0.0295 4.12247,-0.025 8.24394,-0.0725 12.36541,-0.184 8.97993,-0.243 18.03887,-0.773 26.9203,-2.37049 9.00893,-1.62049 17.39437,-4.26598 25.57981,-8.43647 8.04594,-4.09898 15.40789,-9.45397 21.79084,-15.84344 6.38295,-6.38748 11.73291,-13.75445 15.82888,-21.80592 4.16897,-8.19597 6.81295,-16.59244 8.43294,-25.61491 1.59499,-8.88497 2.12398,-17.94793 2.36648,-26.9324 0.1115,-4.12499 0.159,-8.24997 0.1835,-12.37546 C 417,293.50943 417,288.61145 417,283.71347 c 0,0 0,-55.2218 0,-56.2143 v -42.99984 c 0,-0.733 0,-56.1858 0,-56.1858"
       id="use436"
       style="fill:#000000;fill-opacity:1;fill-rule:evenodd;stroke:none;stroke-width:1;filter:url(#filter-80aygx4sbj-3)"
       transform="matrix(0.52916669,0,0,0.52916669,23.8125,26.458334)" /><path
       d="m 244.475,94.357609 c 0,-2.588144 0,-5.176552 -0.014,-7.76496 -0.014,-2.180426 -0.0382,-4.360318 -0.0974,-6.539686 -0.128,-4.750046 -0.40826,-9.540837 -1.25306,-14.237969 -0.85668,-4.764864 -2.2558,-9.199528 -4.46056,-13.52889 -2.16744,-4.255278 -4.99872,-8.149136 -8.3769,-11.524941 -3.37738,-3.375806 -7.27228,-6.20525 -11.52914,-8.371386 -4.33384,-2.205294 -8.77326,-3.603876 -13.54338,-4.46033 -4.69766,-0.843488 -9.48976,-1.123152 -14.23978,-1.251474 -2.18094,-0.059 -4.3619,-0.08388 -6.54336,-0.09736 -2.58972,-0.0158 -5.17946,-0.0146 -7.76918,-0.0146 l -30.06997,-0.10768 h -22.48942 l -29.537067,0.10768 c -2.594752,0 -5.1895,-0.0013 -7.784248,0.0146 -2.185972,0.0134 -4.370884,0.03836 -6.556062,0.09736 -4.761142,0.12832 -9.564087,0.40825 -14.272841,1.252796 -4.776488,0.85619 -9.222514,2.254242 -13.562178,4.45795 -4.265844,2.1664 -8.169214,4.996108 -11.553737,8.372444 -3.383996,3.375541 -6.220574,7.268605 -8.391994,11.523089 -2.210842,4.331478 -3.612594,8.76879 -4.471424,13.536298 -0.845602,4.69528 -1.125794,9.484485 -1.254646,14.232413 -0.05874,2.179634 -0.08414,4.359524 -0.09736,6.539686 -0.0158,2.588674 -0.14896,5.804144 -0.14896,8.392552 v 29.127869 22.73027 l 0.1344,29.74674 c 0,2.59184 -0.0011,5.18368 0.0146,7.77554 0.0132,2.18334 0.03862,4.36614 0.09764,6.54868 0.12858,4.75614 0.409306,9.5538 1.255702,14.25728 0.858566,4.77122 2.260054,9.21222 4.469044,13.54714 2.171684,4.26136 5.00879,8.16026 8.393052,11.54082 3.384259,3.38058 7.286569,6.21372 11.551621,8.38304 4.34231,2.2082 8.790452,3.60862 13.56985,4.46614 4.706638,0.84482 9.507995,1.125 14.267285,1.25332 2.185178,0.059 4.370356,0.0842 6.556326,0.0974 2.594748,0.016 5.189232,0.016 7.783984,0.016 h 29.804033 22.54524 29.74635 c 2.58972,0 5.17944,0 7.76916,-0.016 2.18148,-0.014 4.36242,-0.0384 6.54338,-0.0974 4.75188,-0.1286 9.54556,-0.40904 14.24532,-1.25438 4.76722,-0.8575 9.20452,-2.25742 13.53598,-4.4643 4.25764,-2.16904 8.15334,-5.00272 11.531,-8.38382 3.37764,-3.38004 6.20866,-7.2784 8.3761,-11.53896 2.20608,-4.33704 3.6052,-8.78016 4.46244,-13.55456 0.84402,-4.70162 1.12394,-9.49744 1.25226,-14.25172 0.059,-2.18282 0.0842,-4.36562 0.097,-6.54868 0.014,-2.59186 0.014,-5.1837 0.014,-7.77554 0,0 0,-29.22154 0,-29.74674 v -22.75408 c 0,-0.38788 0,-29.731651 0,-29.731651"
       id="use438"
       style="display:inline;fill:url(#linearGradient1573);fill-opacity:1;fill-rule:evenodd;stroke:none;stroke-width:0.529166" /><path
       id="path1446"
       style="display:none;fill:url(#linearGradient4467);fill-opacity:1;fill-rule:evenodd;stroke:none;stroke-width:0.529166"
       inkscape:label="bg_cut"
       d="m 124.0896,26.458306 -29.537222,0.10748 c -2.59475,0 -5.188758,-0.0015 -7.783504,0.0144 -2.18597,0.0134 -4.37153,0.03918 -6.556706,0.09818 -4.761139,0.12832 -9.564283,0.408092 -14.273031,1.252638 -4.776484,0.856188 -9.222305,2.253902 -13.561965,4.457609 -4.26584,2.166398 -8.169296,4.996284 -11.553817,8.372616 -3.383992,3.375538 -6.219802,7.268332 -8.39122,11.522813 -2.210838,4.331472 -3.613248,8.76862 -4.472078,13.536124 -0.8456,4.695277 -1.125852,9.484801 -1.254704,14.232723 -0.05874,2.179632 -0.08394,4.358977 -0.09716,6.539137 -0.0158,2.588672 -0.14882,5.804882 -0.14882,8.393286 V 108.73021 H 244.47502 V 94.35796 h 0.001 c 0,-2.58814 -4.8e-4,-5.177528 -0.014,-7.765934 -0.014,-2.180424 -0.038,-4.359771 -0.0972,-6.539137 -0.128,-4.75004 -0.40784,-9.540762 -1.25264,-14.237891 -0.85668,-4.76486 -2.25596,-9.199532 -4.46072,-13.52889 -2.16744,-4.255275 -4.99856,-8.149077 -8.37674,-11.524879 -3.37738,-3.375802 -7.27216,-6.205448 -11.52902,-8.371582 -4.33384,-2.205293 -8.77324,-3.604257 -13.54336,-4.460711 -4.69766,-0.843486 -9.48993,-1.122248 -14.23996,-1.25057 -2.18094,-0.059 -4.36179,-0.0847 -6.54327,-0.09818 -2.58971,-0.0158 -5.18035,-0.0144 -7.77006,-0.0144 l -30.06949,-0.10748 z m -97.498969,149.491654 0.0032,0.63976 c 0,2.59184 -0.0012,5.18442 0.0144,7.77627 0.0132,2.18333 0.03916,4.36589 0.09818,6.54843 0.12858,4.75613 0.408308,9.55406 1.254704,14.25754 0.858566,4.7712 2.261024,9.21154 4.470012,13.54646 2.171682,4.26134 5.007994,8.16086 8.392252,11.5414 3.384257,3.38058 7.286703,6.21364 11.551751,8.38296 4.342306,2.2082 8.790839,3.60836 13.570231,4.46588 4.706634,0.84482 9.507544,1.12534 14.266831,1.25366 2.185176,0.059 4.370738,0.084 6.556706,0.0972 2.594746,0.016 5.188754,0.016 7.783504,0.016 h 29.804898 22.54437 29.74702 c 2.58972,0 5.17932,5e-4 7.76903,-0.016 2.18148,-0.014 4.36233,-0.0382 6.54327,-0.0972 4.75188,-0.1286 9.54537,-0.40936 14.24513,-1.2547 4.76722,-0.8575 9.20466,-2.25694 13.53612,-4.4638 4.25764,-2.16904 8.15342,-5.0029 11.53108,-8.384 3.37764,-3.38002 6.20828,-7.27878 8.37572,-11.53934 2.20608,-4.33704 3.60554,-8.78034 4.46278,-13.55472 0.84402,-4.70162 1.12432,-9.49706 1.25264,-14.25134 0.059,-2.1828 0.0834,-4.36536 0.0962,-6.54843 0.014,-2.59185 0.014,-5.18443 0.014,-7.77627 v -0.63976 z" /><g
       id="g1005"
       inkscape:label="main icon"
       clip-path="url(#clipPath4387)"
       style="display:inline"
       transform="matrix(0.80837807,0,0,0.80837807,25.958398,15.993434)"><rect
         inkscape:label="bg"
         ry="1.0565645"
         y="20.8298"
         x="-4.0937502e-07"
         height="270.93335"
         width="270.93335"
         id="rect873"
         style="display:none;fill:#cfff0d;fill-opacity:1;stroke:none;stroke-width:8.46431;stroke-miterlimit:4;stroke-dasharray:none;stroke-opacity:1" /><g
         id="g1033"
         inkscape:label="right (original)"
         transform="matrix(-1,0,0,1,262.28035,14.266743)"
         style="display:none;stroke:none"><path
           inkscape:connector-curvature="0"
           id="path1019"
           d="M -8.6529992,183.6071 H 107.72321 l 19.09046,28.9079 V 100.45235 H -8.6529992 Z"
           style="display:inline;fill:#162d50;stroke:none;stroke-width:0.264583px;stroke-linecap:butt;stroke-linejoin:miter;stroke-opacity:1"
           sodipodi:nodetypes="cccccc"
           inkscape:label="face" /><rect
           style="fill:#ffaaee;fill-opacity:1;stroke:none;stroke-width:0.185662;stroke-miterlimit:4;stroke-dasharray:none"
           id="rect1021"
           width="15.497028"
           height="31.75"
           x="92.382744"
           y="131.06844"
           inkscape:label="eye" /><path
           sodipodi:type="star"
           style="fill:#162d50;fill-opacity:1;stroke:none;stroke-width:0.5;stroke-miterlimit:4;stroke-dasharray:none"
           id="path1023"
           sodipodi:sides="3"
           sodipodi:cx="75.635689"
           sodipodi:cy="87.601158"
           sodipodi:r1="33.042126"
           sodipodi:r2="16.521063"
           sodipodi:arg1="0.52359878"
           sodipodi:arg2="1.5707963"
           inkscape:flatsided="false"
           inkscape:rounded="0"
           inkscape:randomized="0"
           d="m 104.25101,104.12222 -28.615321,0 -28.615321,0 14.30766,-24.781593 14.307661,-24.781595 14.30766,24.781594 z"
           inkscape:transform-center-y="-7.0654063"
           transform="matrix(0.70280031,0,0,0.85532099,32.495272,20.355967)"
           inkscape:label="ear" /><flowRoot
           xml:space="preserve"
           id="flowRoot1031"
           style="font-style:normal;font-weight:normal;font-size:40px;line-height:1.25;font-family:sans-serif;letter-spacing:0px;word-spacing:0px;display:inline;fill:#000000;fill-opacity:1;stroke:none"
           transform="matrix(0.26458333,0,0,0.26458333,-8.6529992,15.861276)"
           inkscape:label="flowRoot4545"><flowRegion
             id="flowRegion1027"
             style="stroke:none"><rect
               id="rect1025"
               width="104.28571"
               height="78.571426"
               x="-374.28571"
               y="54"
               style="stroke:none" /></flowRegion><flowPara
             id="flowPara1029" /></flowRoot></g><use
         style="display:none"
         inkscape:label="left"
         transform="matrix(-1,0,0,1,270.93336,-5.3256301e-6)"
         height="100%"
         width="100%"
         id="use4535"
         xlink:href="#g4527"
         y="0"
         x="0" /><g
         style="display:inline;stroke:none"
         transform="matrix(-1,0,0,1,262.28035,14.266743)"
         inkscape:label="face"
         id="g4527"><path
           style="display:inline;fill:#162d50;stroke:none;stroke-width:1px;stroke-linecap:butt;stroke-linejoin:miter;stroke-opacity:1"
           d="m 356.42773,228.50391 -38.0039,80.11132 -21.9375,46.24219 H -619.27414 V 669.14258 H 439.84766 L 512,778.40039 584.15234,669.14258 H 1613.2487 V 354.85742 H 727.51367 l -21.9375,-46.24219 -38.0039,-80.11132 -38.00586,80.11132 -21.9375,46.24219 H 512 416.37109 l -21.9375,-46.24219 z"
           id="path4518"
           inkscape:connector-curvature="0"
           inkscape:label="shape"
           transform="matrix(-0.26458333,0,0,0.26458333,262.28035,6.563066)"
           sodipodi:nodetypes="ccccccccccccccccccc" /><rect
           inkscape:label="eye right"
           y="131.18182"
           x="92.153267"
           height="31.75"
           width="15.875"
           id="rect1043"
           style="display:inline;fill:#ffaaee;fill-opacity:1;stroke:none;stroke-width:0.187912;stroke-miterlimit:4;stroke-dasharray:none" /><rect
           style="display:inline;fill:#ffaaee;fill-opacity:1;stroke:none;stroke-width:0.187912;stroke-miterlimit:4;stroke-dasharray:none"
           id="rect1047"
           width="15.875"
           height="31.75"
           x="145.59911"
           y="131.18182"
           inkscape:label="eye left" /></g><g
         inkscape:label="dangerous_microwaves"
         clip-path="url(#clipPath869)"
         style="fill:none"
         transform="translate(187.02207,-8.675551)"
         id="g844"><circle
           inkscape:label="path830"
           r="58.208332"
           style="fill:none;fill-opacity:1;stroke:#162d50;stroke-width:8.46667;stroke-miterlimit:4;stroke-dasharray:none;stroke-opacity:1"
           id="path830"
           cx="-92.71701"
           cy="117.6366" /><circle
           r="41.241978"
           cy="117.6366"
           cx="-92.71701"
           id="circle840"
           style="fill:none;fill-opacity:1;stroke:#162d50;stroke-width:8.46667;stroke-miterlimit:4;stroke-dasharray:none;stroke-opacity:1" /></g></g></g></svg>
